SplineFontDB: 3.2
FontName: KratoraScript
FullName: KratoraScript
FamilyName: KratoraScript
Weight: Regular
Copyright: CC-BY-NC-SD 4.0\nAuthor: RedstoneDave
UComments: "2021-9-4: Created with FontForge (http://fontforge.org)"
Version: 001.250
ItalicAngle: 0
UnderlinePosition: -204
UnderlineWidth: 102
Ascent: 1638
Descent: 410
InvalidEm: 0
LayerCount: 2
Layer: 0 0 "Back" 1
Layer: 1 0 "Fore" 0
XUID: [1021 286 -633747124 17935]
FSType: 0
OS2Version: 0
OS2_WeightWidthSlopeOnly: 0
OS2_UseTypoMetrics: 1
CreationTime: 1630759693
ModificationTime: 1634742477
PfmFamily: 17
TTFWeight: 400
TTFWidth: 5
LineGap: 184
VLineGap: 0
OS2TypoAscent: 0
OS2TypoAOffset: 1
OS2TypoDescent: 0
OS2TypoDOffset: 1
OS2TypoLinegap: 184
OS2WinAscent: 0
OS2WinAOffset: 1
OS2WinDescent: 0
OS2WinDOffset: 1
HheadAscent: 0
HheadAOffset: 1
HheadDescent: 0
HheadDOffset: 1
OS2Vendor: 'PfEd'
Lookup: 1 0 0 "bil_nas_rule" { "bil_nas_rule-all" ("before_bil") } []
Lookup: 1 0 0 "dap_nas_rule" { "dap_nas_rule-all" ("before_dap") } []
Lookup: 1 0 0 "vegl_nas_rule" { "vegl_nas_rule-all" ("before_vegl") } []
Lookup: 6 0 0 "nasal_before_conso_rule" { "nasal_before_conso_rule-vegl"  "nasal_before_conso_rule-dap"  "nasal_before_conso_rule-bil"  } ['calt' ('DFLT' <'dflt' > 'latn' <'dflt' > ) ]
Lookup: 1 0 0 "before_vowel" { "before_vowel-dap" ("before_vowel") "before_vowel-bil" ("before_vowel") "before_vowel-vegl" ("before_vowel") } []
Lookup: 6 0 0 "before_vowel_rule" { "before_vowel_rule-dap"  "before_vowel_rule-bil"  "before_vowel_rule-vegl"  } ['calt' ('DFLT' <'dflt' > 'latn' <'dflt' > ) ]
Lookup: 1 0 0 "vowel_after_dap" { "vowel_after_dap-all" ("after_dap") } []
Lookup: 1 0 0 "vowel_after_bil" { "vowel_after_bil-all" ("after_bil") } ['    ' ('DFLT' <'dflt' > 'latn' <'dflt' > ) ]
Lookup: 1 0 0 "vowel_after_vegl" { "vowel_after_vegl-all" ("after_vegl") } []
Lookup: 1 0 0 "vowel_after_r" { "vowel_after_r-all" ("after_r") } []

StartChar: t
Encoding: 116 116 0
Width: 600
Flags: HW
LayerCount: 2
Fore
SplineSet
390 1200 m 28
 390 1255 435 1300 490 1300 c 28
 545 1300 590 1255 590 1200 c 28
 590 1145 545 1100 490 1100 c 28
 435 1100 390 1145 390 1200 c 28
290 0 m 5
 367 770 l 5
 117 510 l 5
 140 740 l 5
 390 1000 l 5
 550 1000 l 5
 450 0 l 5
 290 0 l 5
EndSplineSet
Substitution2: "before_vowel-dap" t.before_vowel
EndChar

StartChar: d
Encoding: 100 100 1
Width: 600
Flags: HW
LayerCount: 2
Fore
SplineSet
70 900 m 24
 70 955 115 1000 170 1000 c 24
 225 1000 270 955 270 900 c 24
 270 845 225 800 170 800 c 24
 115 800 70 845 70 900 c 24
390 1200 m 24
 390 1255 435 1300 490 1300 c 24
 545 1300 590 1255 590 1200 c 24
 590 1145 545 1100 490 1100 c 24
 435 1100 390 1145 390 1200 c 24
290 0 m 5
 390 1000 l 5
 550 1000 l 1
 450 0 l 1
 290 0 l 5
EndSplineSet
Validated: 1
Substitution2: "before_vowel-dap" d.before_vowel
EndChar

StartChar: s
Encoding: 115 115 2
Width: 600
Flags: HW
LayerCount: 2
Fore
SplineSet
390 1200 m 28
 390 1255 435 1300 490 1300 c 28
 545 1300 590 1255 590 1200 c 28
 590 1145 545 1100 490 1100 c 28
 435 1100 390 1145 390 1200 c 28
-50 0 m 1
 -50 0 287 90 340 500 c 1
 390 1000 390 1000 390 1000 c 1
 550 1000 l 1
 500 500 l 1
 457 155 254 0 0 0 c 1
 -17 0 -36 0 -50 0 c 1
EndSplineSet
Validated: 1
Substitution2: "before_vowel-dap" s.before_vowel
EndChar

StartChar: z
Encoding: 122 122 3
Width: 600
Flags: HW
LayerCount: 2
Fore
SplineSet
390 1200 m 28
 390 1255 435 1300 490 1300 c 28
 545 1300 590 1255 590 1200 c 28
 590 1145 545 1100 490 1100 c 28
 435 1100 390 1145 390 1200 c 28
-50 0 m 1
 -50 0 287 90 340 500 c 1
 390 1000 390 1000 390 1000 c 1
 550 1000 l 1
 500 500 l 1
 457 155 254 0 0 0 c 1
 -17 0 -36 0 -50 0 c 1
70 900 m 24
 70 955 115 1000 170 1000 c 24
 225 1000 270 955 270 900 c 24
 270 845 225 800 170 800 c 24
 115 800 70 845 70 900 c 24
EndSplineSet
Validated: 1
Substitution2: "before_vowel-dap" z.before_vowel
EndChar

StartChar: n
Encoding: 110 110 4
Width: 600
Flags: HW
LayerCount: 2
Fore
SplineSet
390 1200 m 24
 390 1255 435 1300 490 1300 c 24
 545 1300 590 1255 590 1200 c 24
 590 1145 545 1100 490 1100 c 24
 435 1100 390 1145 390 1200 c 24
450 500 m 5
 150 0 l 5
 -10 0 l 5
 140 250 l 5
 215 372 290 500 450 500 c 5
90 500 m 5
 390 1000 l 5
 550 1000 l 5
 400 750 l 5
 325 628 250 500 90 500 c 5
EndSplineSet
Validated: 1
Substitution2: "vegl_nas_rule-all" n.before_vegl
Substitution2: "dap_nas_rule-all" n.before_dap
Substitution2: "before_vowel-dap" n.before_vowel
EndChar

StartChar: a
Encoding: 97 97 5
Width: 600
Flags: HW
LayerCount: 2
Fore
SplineSet
40 500 m 5
 90 1000 l 5
 257 1000 383 1000 550 1000 c 5
 450 0 l 5
 290 0 l 5
 375 850 l 5
 235 850 l 5
 198 500 l 5
 40 500 l 5
EndSplineSet
Validated: 1
Substitution2: "vowel_after_r-all" a.after_r
Substitution2: "vowel_after_vegl-all" a.after_vegl
Substitution2: "vowel_after_bil-all" a.after_bil
Substitution2: "vowel_after_dap-all" a.after_dap
EndChar

StartChar: u
Encoding: 117 117 6
Width: 600
Flags: HW
LayerCount: 2
Fore
SplineSet
40 500 m 1
 90 1000 l 1
 257 1000 383 1000 550 1000 c 1
 450 0 l 1
 290 0 l 1
 375 850 l 1
 235 850 l 1
 198 500 l 1
 40 500 l 1
400 1100 m 5
 430 1400 l 5
 590 1400 l 5
 560 1100 l 5
 400 1100 l 5
EndSplineSet
Validated: 1
Substitution2: "vowel_after_r-all" u.after_r
Substitution2: "vowel_after_vegl-all" u.after_vegl
Substitution2: "vowel_after_bil-all" u.after_bil
Substitution2: "vowel_after_dap-all" u.after_dap
EndChar

StartChar: o
Encoding: 111 111 7
Width: 600
Flags: HW
LayerCount: 2
Fore
SplineSet
40 500 m 1
 90 1000 l 1
 257 1000 383 1000 550 1000 c 1
 450 0 l 1
 290 0 l 1
 375 850 l 1
 235 850 l 1
 198 500 l 1
 40 500 l 1
100 1100 m 1
 128 1390 l 5
 288 1390 l 5
 260 1100 l 1
 100 1100 l 1
400 1100 m 1
 428 1390 l 5
 588 1390 l 5
 560 1100 l 1
 400 1100 l 1
EndSplineSet
Validated: 1
Substitution2: "vowel_after_r-all" o.after_r
Substitution2: "vowel_after_vegl-all" o.after_vegl
Substitution2: "vowel_after_bil-all" o.after_bil
Substitution2: "vowel_after_dap-all" o.after_dap
EndChar

StartChar: i
Encoding: 105 105 8
Width: 600
Flags: HW
LayerCount: 2
Fore
SplineSet
40 500 m 1
 90 1000 l 1
 257 1000 383 1000 550 1000 c 1
 450 0 l 1
 290 0 l 1
 375 850 l 1
 235 850 l 1
 198 500 l 1
 40 500 l 1
100 1100 m 5
 112 1220 l 5
 572 1220 l 5
 560 1100 l 5
 100 1100 l 5
EndSplineSet
Validated: 1
Substitution2: "vowel_after_r-all" i.after_r
Substitution2: "vowel_after_vegl-all" i.after_vegl
Substitution2: "vowel_after_bil-all" i.after_bil
Substitution2: "vowel_after_dap-all" i.after_dap
EndChar

StartChar: e
Encoding: 101 101 9
Width: 600
Flags: HW
LayerCount: 2
Fore
SplineSet
40 500 m 1
 90 1000 l 1
 257 1000 383 1000 550 1000 c 1
 450 0 l 1
 290 0 l 1
 375 850 l 1
 235 850 l 1
 198 500 l 1
 40 500 l 1
118 1280 m 5
 130 1400 l 5
 590 1400 l 5
 578 1280 l 5
 118 1280 l 5
100 1100 m 5
 112 1220 l 5
 572 1220 l 5
 560 1100 l 5
 100 1100 l 5
EndSplineSet
Validated: 1
Substitution2: "vowel_after_r-all" e.after_r
Substitution2: "vowel_after_vegl-all" e.after_vegl
Substitution2: "vowel_after_bil-all" e.after_bil
Substitution2: "vowel_after_dap-all" e.after_dap
EndChar

StartChar: r
Encoding: 114 114 10
Width: 600
Flags: HW
LayerCount: 2
Fore
SplineSet
90 1200 m 24
 90 1255 135 1300 190 1300 c 24
 245 1300 290 1255 290 1200 c 24
 290 1145 245 1100 190 1100 c 24
 135 1100 90 1145 90 1200 c 24
-10 0 m 1
 90 1000 l 1
 250 1000 l 1
 150 0 l 1
 -10 0 l 1
340 500 m 5
 390 1000 l 5
 550 1000 l 1
 500 500 l 1
 340 500 l 5
EndSplineSet
Validated: 1
Substitution2: "before_vowel-dap" r.before_vowel
EndChar

StartChar: p
Encoding: 112 112 11
Width: 600
Flags: HW
LayerCount: 2
Fore
SplineSet
250 -400 m 1
 367 770 l 1
 117 510 l 5
 140 740 l 1
 390 1000 l 1
 550 1000 l 1
 410 -400 l 1
 250 -400 l 1
390 1200 m 24
 390 1255 435 1300 490 1300 c 24
 545 1300 590 1255 590 1200 c 24
 590 1145 545 1100 490 1100 c 24
 435 1100 390 1145 390 1200 c 24
EndSplineSet
Substitution2: "before_vowel-bil" p.before_vowel
EndChar

StartChar: b
Encoding: 98 98 12
Width: 600
Flags: HW
LayerCount: 2
Fore
SplineSet
60 900 m 28
 60 955 105 1000 160 1000 c 28
 215 1000 260 955 260 900 c 28
 260 845 215 800 160 800 c 28
 105 800 60 845 60 900 c 28
390 1200 m 24
 390 1255 435 1300 490 1300 c 24
 545 1300 590 1255 590 1200 c 24
 590 1145 545 1100 490 1100 c 24
 435 1100 390 1145 390 1200 c 24
250 -400 m 5
 390 1000 l 5
 550 1000 l 5
 410 -400 l 5
 250 -400 l 5
EndSplineSet
Validated: 1
Substitution2: "before_vowel-bil" b.before_vowel
EndChar

StartChar: f
Encoding: 102 102 13
Width: 600
Flags: HW
LayerCount: 2
Fore
SplineSet
390 1200 m 24
 390 1255 435 1300 490 1300 c 24
 545 1300 590 1255 590 1200 c 24
 590 1145 545 1100 490 1100 c 24
 435 1100 390 1145 390 1200 c 24
-90 -400 m 1
 -90 -400 247 -310 300 100 c 1
 350 600 390 1000 390 1000 c 1
 550 1000 l 1
 460 100 l 1
 417 -245 214 -400 -40 -400 c 1
 -57 -400 -76 -400 -90 -400 c 1
EndSplineSet
Validated: 1
Substitution2: "before_vowel-bil" f.before_vowel
EndChar

StartChar: v
Encoding: 118 118 14
Width: 600
Flags: HW
LayerCount: 2
Fore
SplineSet
70 900 m 28
 70 955 115 1000 170 1000 c 28
 225 1000 270 955 270 900 c 28
 270 845 225 800 170 800 c 28
 115 800 70 845 70 900 c 28
390 1200 m 24
 390 1255 435 1300 490 1300 c 24
 545 1300 590 1255 590 1200 c 24
 590 1145 545 1100 490 1100 c 24
 435 1100 390 1145 390 1200 c 24
-90 -400 m 1
 -90 -400 247 -310 300 100 c 1
 350 600 390 1000 390 1000 c 1
 550 1000 l 1
 460 100 l 1
 417 -245 214 -400 -40 -400 c 1
 -57 -400 -76 -400 -90 -400 c 1
EndSplineSet
Validated: 1
Substitution2: "before_vowel-bil" v.before_vowel
EndChar

StartChar: m
Encoding: 109 109 15
Width: 600
Flags: HW
LayerCount: 2
Fore
SplineSet
-90 -400 m 5
 49 -202 203 -96 416 -90 c 5
 267 -295 121 -400 -90 -400 c 5
390 1200 m 24
 390 1255 435 1300 490 1300 c 24
 545 1300 590 1255 590 1200 c 24
 590 1145 545 1100 490 1100 c 24
 435 1100 390 1145 390 1200 c 24
-45 -50 m 5
 76 29 307 210 330 400 c 5
 380 900 390 1000 390 1000 c 5
 550 1000 l 5
 490 400 l 5
 463 156 185 -50 5 -50 c 5
 -12 -50 -31 -50 -45 -50 c 5
EndSplineSet
Validated: 1
Substitution2: "bil_nas_rule-all" m.before_bil
Substitution2: "before_vowel-bil" m.before_vowel
EndChar

StartChar: comma
Encoding: 44 44 60
Width: 600
Flags: HW
LayerCount: 2
Fore
SplineSet
55 -250 m 5
 80 0 l 5
 210 0 l 5
 185 -250 l 5
 55 -250 l 5
EndSplineSet
Validated: 1
EndChar

StartChar: period
Encoding: 46 46 62
Width: 600
Flags: HW
LayerCount: 2
Fore
SplineSet
235 -250 m 1
 260 0 l 1
 390 0 l 1
 365 -250 l 1
 235 -250 l 1
55 -250 m 1
 80 0 l 1
 210 0 l 1
 185 -250 l 1
 55 -250 l 1
EndSplineSet
Validated: 1
EndChar

StartChar: at
Encoding: 64 64 80
Width: 600
Flags: HW
LayerCount: 2
Fore
SplineSet
70 680 m 1
 80 780 l 1
 350 780 l 1
 390 780 411 799 411 829 c 1
 411 849 395 860 360 860 c 1
 90 860 l 1
 100 960 l 1
 400 960 l 1
 447 960 497 917 497 866 c 3
 497 862 497 851 496 840 c 1
 491 790 l 1
 484 730 420 680 370 680 c 1
 70 680 l 1
EndSplineSet
EndChar

StartChar: g
Encoding: 103 103 114
Width: 600
Flags: HW
LayerCount: 2
Fore
SplineSet
280 100 m 24
 280 155 325 200 380 200 c 24
 435 200 480 155 480 100 c 24
 480 45 435 0 380 0 c 24
 325 0 280 45 280 100 c 24
-50 -200 m 24
 -50 -145 -5 -100 50 -100 c 24
 105 -100 150 -145 150 -200 c 24
 150 -255 105 -300 50 -300 c 24
 -5 -300 -50 -255 -50 -200 c 24
-10 0 m 1
 130 1400 l 1
 290 1400 l 1
 150 0 l 1
 -10 0 l 1
EndSplineSet
Validated: 1
Substitution2: "before_vowel-vegl" g.before_vowel
EndChar

StartChar: h
Encoding: 104 104 115
Width: 600
Flags: HW
LayerCount: 2
Fore
SplineSet
150 -200 m 24
 150 -255 105 -300 50 -300 c 24
 -5 -300 -50 -255 -50 -200 c 24
 -50 -145 -5 -100 50 -100 c 24
 105 -100 150 -145 150 -200 c 24
590 1400 m 1
 590 1400 283 1210 230 800 c 1
 180 300 150 0 150 0 c 1
 -10 0 l 1
 70 800 l 1
 113 1145 286 1400 540 1400 c 1
 557 1400 576 1400 590 1400 c 1
EndSplineSet
Validated: 1
Substitution2: "before_vowel-vegl" h.before_vowel
EndChar

StartChar: k
Encoding: 107 107 117
Width: 600
Flags: HW
LayerCount: 2
Fore
SplineSet
-50 -200 m 28
 -50 -145 -5 -100 50 -100 c 4
 105 -100 150 -145 150 -200 c 28
 150 -255 105 -300 50 -300 c 28
 -5 -300 -50 -255 -50 -200 c 28
-10 0 m 1
 130 1400 l 1
 290 1400 l 1
 173 230 l 1
 473 540 l 1
 450 310 l 1
 150 0 l 1
 -10 0 l 1
EndSplineSet
Substitution2: "before_vowel-vegl" k.before_vowel
EndChar

StartChar: w
Encoding: 119 119 120
Width: 600
Flags: HW
LayerCount: 2
Fore
SplineSet
40 500 m 1
 90 1000 l 1
 257 1000 383 1000 550 1000 c 1
 450 0 l 1
 290 0 l 1
 375 850 l 1
 235 850 l 1
 198 500 l 1
 40 500 l 1
-20 100 m 24
 -20 155 25 200 80 200 c 24
 135 200 180 155 180 100 c 24
 180 45 135 0 80 0 c 24
 25 0 -20 45 -20 100 c 24
EndSplineSet
Validated: 1
EndChar

StartChar: y
Encoding: 121 121 122
Width: 600
Flags: HW
LayerCount: 2
Fore
SplineSet
70 900 m 24
 70 955 115 1000 170 1000 c 24
 225 1000 270 955 270 900 c 24
 270 845 225 800 170 800 c 24
 115 800 70 845 70 900 c 24
-10 0 m 1
 40 500 l 1
 200 500 l 1
 166 160 l 1
 306 160 l 1
 390 1000 l 1
 550 1000 l 1
 450 0 l 1
 283 0 157 0 -10 0 c 1
EndSplineSet
Validated: 1
EndChar

StartChar: bar
Encoding: 124 124 124
Width: 600
Flags: HW
LayerCount: 2
Fore
SplineSet
500 500 m 24
 500 390 410 300 300 300 c 24
 190 300 100 390 100 500 c 24
 100 610 190 700 300 700 c 24
 410 700 500 610 500 500 c 24
400 500 m 27
 400 555 355 600 300 600 c 27
 245 600 200 555 200 500 c 27
 200 445 245 400 300 400 c 27
 355 400 400 445 400 500 c 27
EndSplineSet
Validated: 1
EndChar

StartChar: eth
Encoding: 240 240 240
Width: 600
Flags: HW
LayerCount: 2
Fore
SplineSet
-10 200 m 5
 40 700 l 5
 200 700 l 5
 184 444 109 200 -10 200 c 5
390 1200 m 24
 390 1255 435 1300 490 1300 c 24
 545 1300 590 1255 590 1200 c 24
 590 1145 545 1100 490 1100 c 24
 435 1100 390 1145 390 1200 c 24
-50 0 m 5
 -50 0 287 90 340 500 c 5
 390 1000 390 1000 390 1000 c 5
 550 1000 l 5
 500 500 l 5
 457 155 254 0 0 0 c 5
 -17 0 -36 0 -50 0 c 5
40 900 m 28
 40 955 85 1000 140 1000 c 28
 195 1000 240 955 240 900 c 28
 240 845 195 800 140 800 c 28
 85 800 40 845 40 900 c 28
EndSplineSet
Validated: 1
Substitution2: "before_vowel-dap" eth.before_vowel
EndChar

StartChar: thorn
Encoding: 254 254 254
Width: 600
Flags: HW
LayerCount: 2
Fore
SplineSet
-20 200 m 5
 30 700 l 5
 190 700 l 5
 174 444 99 200 -20 200 c 5
390 1200 m 24
 390 1255 435 1300 490 1300 c 24
 545 1300 590 1255 590 1200 c 24
 590 1145 545 1100 490 1100 c 24
 435 1100 390 1145 390 1200 c 24
-50 0 m 5
 -50 0 287 90 340 500 c 5
 390 1000 390 1000 390 1000 c 5
 550 1000 l 5
 500 500 l 5
 457 155 254 0 0 0 c 5
 -17 0 -36 0 -50 0 c 5
EndSplineSet
Validated: 1
Substitution2: "before_vowel-dap" thorn.before_vowel
EndChar

StartChar: t.before_vowel
Encoding: 320 -1 256
Width: 600
Flags: HW
LayerCount: 2
Fore
SplineSet
390 1200 m 28
 390 1255 435 1300 490 1300 c 28
 545 1300 590 1255 590 1200 c 28
 590 1145 545 1100 490 1100 c 28
 435 1100 390 1145 390 1200 c 28
290 0 m 5
 367 770 l 5
 117 510 l 5
 140 740 l 5
 390 1000 l 5
 550 1000 l 5
 450 0 l 5
 290 0 l 5
EndSplineSet
EndChar

StartChar: d.before_vowel
Encoding: 321 -1 257
Width: 600
Flags: HW
LayerCount: 2
Fore
SplineSet
70 900 m 24
 70 955 115 1000 170 1000 c 24
 225 1000 270 955 270 900 c 24
 270 845 225 800 170 800 c 24
 115 800 70 845 70 900 c 24
290 0 m 5
 390 1000 l 5
 550 1000 l 1
 450 0 l 1
 290 0 l 5
EndSplineSet
Validated: 1
EndChar

StartChar: s.before_vowel
Encoding: 322 -1 258
Width: 600
Flags: HW
LayerCount: 2
Fore
SplineSet
-50 0 m 1
 -50 0 287 90 340 500 c 5
 390 1000 390 1000 390 1000 c 5
 550 1000 l 1
 500 500 l 1
 457 155 254 0 0 0 c 1
 -17 0 -36 0 -50 0 c 1
EndSplineSet
Validated: 1
EndChar

StartChar: z.before_vowel
Encoding: 323 -1 259
Width: 600
Flags: HW
LayerCount: 2
Fore
SplineSet
-50 0 m 1
 -50 0 287 90 340 500 c 5
 390 1000 390 1000 390 1000 c 5
 550 1000 l 1
 500 500 l 1
 457 155 254 0 0 0 c 1
 -17 0 -36 0 -50 0 c 1
70 900 m 24
 70 955 115 1000 170 1000 c 24
 225 1000 270 955 270 900 c 24
 270 845 225 800 170 800 c 24
 115 800 70 845 70 900 c 24
EndSplineSet
Validated: 1
EndChar

StartChar: n.before_vowel
Encoding: 324 -1 260
Width: 600
Flags: HW
LayerCount: 2
Fore
SplineSet
450 500 m 5
 150 0 l 5
 -10 0 l 5
 140 250 l 5
 215 372 290 500 450 500 c 5
90 500 m 5
 390 1000 l 5
 550 1000 l 5
 400 750 l 5
 325 628 250 500 90 500 c 5
EndSplineSet
Validated: 1
EndChar

StartChar: r.before_vowel
Encoding: 325 -1 261
Width: 600
Flags: HW
LayerCount: 2
Fore
SplineSet
-10 0 m 1
 90 1000 l 1
 250 1000 l 1
 150 0 l 1
 -10 0 l 1
340 500 m 1
 390 1000 l 1
 550 1000 l 1
 500 500 l 1
 340 500 l 1
EndSplineSet
Validated: 1
EndChar

StartChar: eth.before_vowel
Encoding: 326 -1 262
Width: 600
Flags: HW
LayerCount: 2
Fore
SplineSet
-10 200 m 5
 40 700 l 5
 200 700 l 5
 184 444 109 200 -10 200 c 5
-50 0 m 5
 -50 0 287 90 340 500 c 5
 390 1000 390 1000 390 1000 c 5
 550 1000 l 5
 500 500 l 5
 457 155 254 0 0 0 c 5
 -17 0 -36 0 -50 0 c 5
40 900 m 28
 40 955 85 1000 140 1000 c 28
 195 1000 240 955 240 900 c 28
 240 845 195 800 140 800 c 28
 85 800 40 845 40 900 c 28
EndSplineSet
Validated: 1
EndChar

StartChar: thorn.before_vowel
Encoding: 327 -1 263
Width: 600
Flags: HW
LayerCount: 2
Fore
SplineSet
-20 200 m 5
 30 700 l 5
 190 700 l 5
 174 444 99 200 -20 200 c 5
-50 0 m 5
 -50 0 287 90 340 500 c 5
 390 1000 390 1000 390 1000 c 5
 550 1000 l 5
 500 500 l 5
 457 155 254 0 0 0 c 5
 -17 0 -36 0 -50 0 c 5
EndSplineSet
Validated: 1
EndChar

StartChar: u.after_dap
Encoding: 257 -1 265
Width: 0
Flags: HW
LayerCount: 2
Fore
SplineSet
-200 1100 m 5
 -170 1400 l 5
 -10 1400 l 5
 -40 1100 l 5
 -200 1100 l 5
EndSplineSet
Validated: 1
EndChar

StartChar: o.after_dap
Encoding: 258 -1 266
Width: 0
Flags: HW
LayerCount: 2
Fore
SplineSet
-500 1100 m 5
 -471 1390 l 5
 -311 1390 l 5
 -340 1100 l 5
 -500 1100 l 5
-200 1100 m 5
 -171 1390 l 5
 -11 1390 l 5
 -40 1100 l 5
 -200 1100 l 5
EndSplineSet
Validated: 1
EndChar

StartChar: i.after_dap
Encoding: 259 -1 267
Width: 0
Flags: HW
LayerCount: 2
Fore
SplineSet
-500 1100 m 1
 -488 1220 l 1
 -28 1220 l 1
 -40 1100 l 1
 -500 1100 l 1
EndSplineSet
Validated: 1
EndChar

StartChar: e.after_dap
Encoding: 260 -1 268
Width: 0
Flags: HW
LayerCount: 2
Fore
SplineSet
-482 1280 m 1
 -470 1400 l 1
 -10 1400 l 1
 -22 1280 l 1
 -482 1280 l 1
-500 1100 m 1
 -488 1220 l 1
 -28 1220 l 1
 -40 1100 l 1
 -500 1100 l 1
EndSplineSet
Validated: 1
EndChar

StartChar: u.after_bil
Encoding: 263 -1 271
Width: 0
Flags: HW
LayerCount: 2
Fore
SplineSet
-200 1100 m 5
 -170 1400 l 5
 -10 1400 l 5
 -40 1100 l 5
 -200 1100 l 5
EndSplineSet
Validated: 1
EndChar

StartChar: o.after_bil
Encoding: 264 -1 272
Width: 0
Flags: HW
LayerCount: 2
Fore
SplineSet
-500 1100 m 5
 -471 1390 l 5
 -311 1390 l 5
 -340 1100 l 5
 -500 1100 l 5
-200 1100 m 5
 -171 1390 l 5
 -11 1390 l 5
 -40 1100 l 5
 -200 1100 l 5
EndSplineSet
Validated: 1
EndChar

StartChar: i.after_bil
Encoding: 265 -1 273
Width: 0
Flags: HW
LayerCount: 2
Fore
SplineSet
-500 1100 m 1
 -488 1220 l 1
 -28 1220 l 1
 -40 1100 l 1
 -500 1100 l 1
EndSplineSet
Validated: 1
EndChar

StartChar: e.after_bil
Encoding: 266 -1 274
Width: 0
Flags: HW
LayerCount: 2
Fore
SplineSet
-482 1280 m 1
 -470 1400 l 1
 -10 1400 l 1
 -22 1280 l 1
 -482 1280 l 1
-500 1100 m 1
 -488 1220 l 1
 -28 1220 l 1
 -40 1100 l 1
 -500 1100 l 1
EndSplineSet
Validated: 1
EndChar

StartChar: p.before_vowel
Encoding: 268 -1 275
Width: 600
Flags: HW
LayerCount: 2
Fore
SplineSet
250 -400 m 1
 367 770 l 1
 117 510 l 5
 140 740 l 1
 390 1000 l 1
 550 1000 l 1
 410 -400 l 1
 250 -400 l 1
EndSplineSet
EndChar

StartChar: b.before_vowel
Encoding: 269 -1 276
Width: 600
Flags: HW
LayerCount: 2
Fore
SplineSet
60 900 m 28
 60 955 105 1000 160 1000 c 28
 215 1000 260 955 260 900 c 28
 260 845 215 800 160 800 c 28
 105 800 60 845 60 900 c 28
250 -400 m 5
 390 1000 l 5
 550 1000 l 5
 410 -400 l 5
 250 -400 l 5
EndSplineSet
Validated: 1
EndChar

StartChar: f.before_vowel
Encoding: 270 -1 277
Width: 600
Flags: HW
LayerCount: 2
Fore
SplineSet
-90 -400 m 1
 -90 -400 247 -310 300 100 c 5
 350 600 390 1000 390 1000 c 5
 550 1000 l 1
 460 100 l 1
 417 -245 214 -400 -40 -400 c 1
 -57 -400 -76 -400 -90 -400 c 1
EndSplineSet
Validated: 1
EndChar

StartChar: v.before_vowel
Encoding: 271 -1 278
Width: 600
Flags: HW
LayerCount: 2
Fore
SplineSet
70 900 m 24
 70 955 115 1000 170 1000 c 24
 225 1000 270 955 270 900 c 24
 270 845 225 800 170 800 c 24
 115 800 70 845 70 900 c 24
-90 -400 m 1
 -90 -400 247 -310 300 100 c 5
 350 600 390 1000 390 1000 c 5
 550 1000 l 1
 460 100 l 1
 417 -245 214 -400 -40 -400 c 1
 -57 -400 -76 -400 -90 -400 c 1
EndSplineSet
Validated: 1
EndChar

StartChar: m.before_vowel
Encoding: 272 -1 279
Width: 600
Flags: HW
LayerCount: 2
Fore
SplineSet
-90 -400 m 5
 49 -202 203 -96 416 -90 c 5
 267 -295 121 -400 -90 -400 c 5
-45 -50 m 5
 76 29 307 210 330 400 c 5
 380 900 390 1000 390 1000 c 5
 550 1000 l 5
 490 400 l 5
 463 156 185 -50 5 -50 c 5
 -12 -50 -31 -50 -45 -50 c 5
EndSplineSet
Validated: 1
EndChar

StartChar: k.before_vowel
Encoding: 274 -1 281
Width: 600
Flags: HW
LayerCount: 2
Fore
SplineSet
-10 0 m 1
 130 1400 l 1
 290 1400 l 1
 173 230 l 1
 473 540 l 1
 450 310 l 1
 150 0 l 1
 -10 0 l 1
EndSplineSet
EndChar

StartChar: g.before_vowel
Encoding: 275 -1 282
Width: 600
Flags: HW
LayerCount: 2
Fore
SplineSet
280 100 m 28
 280 155 325 200 380 200 c 28
 435 200 480 155 480 100 c 28
 480 45 435 0 380 0 c 28
 325 0 280 45 280 100 c 28
-10 0 m 1
 130 1400 l 1
 290 1400 l 1
 150 0 l 1
 -10 0 l 1
EndSplineSet
Validated: 1
EndChar

StartChar: h.before_vowel
Encoding: 276 -1 283
Width: 600
Flags: HW
LayerCount: 2
Fore
SplineSet
590 1400 m 5
 590 1400 283 1210 230 800 c 5
 180 300 150 0 150 0 c 5
 -10 0 l 5
 17 267 23 533 70 800 c 5
 113 1145 286 1400 540 1400 c 5
 557 1400 576 1400 590 1400 c 5
EndSplineSet
Validated: 1
EndChar

StartChar: u.after_vegl
Encoding: 289 -1 285
Width: 0
Flags: HW
LayerCount: 2
Fore
SplineSet
-650 -400 m 5
 -620 -100 l 5
 -460 -100 l 1
 -490 -400 l 1
 -650 -400 l 5
EndSplineSet
Validated: 1
EndChar

StartChar: o.after_vegl
Encoding: 290 -1 286
Width: 0
Flags: HW
LayerCount: 2
Fore
SplineSet
-350 -400 m 5
 -320 -100 l 5
 -160 -100 l 1
 -190 -400 l 1
 -350 -400 l 5
-650 -400 m 1
 -620 -100 l 1
 -460 -100 l 1
 -490 -400 l 1
 -650 -400 l 1
EndSplineSet
Validated: 1
EndChar

StartChar: i.after_vegl
Encoding: 291 -1 287
Width: 0
Flags: HW
LayerCount: 2
Fore
SplineSet
-631 -210 m 5
 -620 -100 l 5
 -164 -100 l 5
 -175 -210 l 5
 -631 -210 l 5
EndSplineSet
Validated: 1
EndChar

StartChar: e.after_vegl
Encoding: 292 -1 288
Width: 0
Flags: HW
LayerCount: 2
Fore
SplineSet
-641 -410 m 5
 -630 -300 l 5
 -180 -300 l 1
 -191 -410 l 1
 -641 -410 l 5
-621 -210 m 5
 -610 -100 l 5
 -160 -100 l 1
 -171 -210 l 1
 -621 -210 l 5
EndSplineSet
Validated: 1
EndChar

StartChar: u.after_r
Encoding: 295 -1 289
Width: 0
Flags: HW
LayerCount: 2
Fore
SplineSet
-200 1100 m 5
 -170 1400 l 5
 -10 1400 l 5
 -40 1100 l 5
 -200 1100 l 5
EndSplineSet
Validated: 1
EndChar

StartChar: o.after_r
Encoding: 296 -1 290
Width: 0
Flags: HW
LayerCount: 2
Fore
SplineSet
-500 1100 m 5
 -471 1390 l 5
 -311 1390 l 5
 -340 1100 l 5
 -500 1100 l 5
-200 1100 m 5
 -171 1390 l 5
 -11 1390 l 5
 -40 1100 l 5
 -200 1100 l 5
EndSplineSet
Validated: 1
EndChar

StartChar: i.after_r
Encoding: 297 -1 291
Width: 0
Flags: HW
LayerCount: 2
Fore
SplineSet
-500 1100 m 1
 -488 1220 l 1
 -28 1220 l 1
 -40 1100 l 1
 -500 1100 l 1
EndSplineSet
Validated: 1
EndChar

StartChar: e.after_r
Encoding: 298 -1 292
Width: 0
Flags: HW
LayerCount: 2
Fore
SplineSet
-482 1280 m 1
 -470 1400 l 1
 -10 1400 l 1
 -22 1280 l 1
 -482 1280 l 1
-500 1100 m 1
 -488 1220 l 1
 -28 1220 l 1
 -40 1100 l 1
 -500 1100 l 1
EndSplineSet
Validated: 1
EndChar

StartChar: n.before_dap
Encoding: 278 -1 293
Width: 0
Flags: HWO
LayerCount: 2
Fore
SplineSet
310 -50 m 1
 430 -50 l 1
 510 -220 l 1
 430 -220 l 1
 365 -100 l 1
 290 -220 l 1
 210 -220 l 1
 310 -50 l 1
EndSplineSet
EndChar

StartChar: m.before_bil
Encoding: 279 -1 294
Width: 0
Flags: HW
LayerCount: 2
Fore
SplineSet
333 430 m 5
 329 390 l 5
 322 316 160 256 -7 215 c 5
 13 265 l 5
 46 340 163 395 333 430 c 5
EndSplineSet
Validated: 1
EndChar

StartChar: n.before_vegl
Encoding: 280 -1 295
Width: 0
Flags: HW
LayerCount: 2
Fore
SplineSet
537 755 m 5
 517 705 l 5
 487 629 369 561 202 520 c 5
 207 570 l 5
 215 650 367 720 537 755 c 5
EndSplineSet
Validated: 1
EndChar
